<?xml version="1.0" encoding="utf-8"?>
<!-- Generator: Adobe Illustrator 18.1.1, SVG Export Plug-In . SVG Version: 6.00 Build 0)  -->
<!DOCTYPE svg PUBLIC "-//W3C//DTD SVG 1.1//EN" "http://www.w3.org/Graphics/SVG/1.1/DTD/svg11.dtd">
<svg version="1.1" id="Layer_1" xmlns="http://www.w3.org/2000/svg" xmlns:xlink="http://www.w3.org/1999/xlink" x="0px" y="0px"
	 viewBox="0 0 400 400" enable-background="new 0 0 400 400" xml:space="preserve" width="400" height="400">
<circle fill="#3FB5DE" cx="200" cy="200" r="200"/>
<path fill="#FFFFFF" d="M120.2,128.2H95.6l-25.2,98.7h20.9l8.8-33.3l0.2,0v0c14,1.3,44.8,1.6,49.2-34.5
	C153.8,124.1,120.2,128.2,120.2,128.2z M122.5,169.4c-7.1,7-17.1,4.5-17.1,4.5l2.8-11l3.9-14.6c1.4-0.2,11.6-1.3,14.4,1.2
	C129.5,152,127.3,164.6,122.5,169.4z M302.9,128.4l-45,98.3h23.3l7.1-16.2h21v16.1l20.4-0.1v-98.4L302.9,128.4z M309.1,191.1h-12.4
	l12.3-28.2l0.1-0.4V191.1z M205.2,129.7c-17.8-6.1-32.5,8.4-42.7,22.2c-10,14.8-16.4,31.1-16.7,50.3c0.5,10.8,3,22.9,13.4,27.1
	c17.2,4.6,29.7-10.7,38.9-23.4c0.9-1.8,2.8-3.4,2.8-5.4c-0.7-0.4-1.4-1.1-2.2-1c-2,3-3.9,5.8-6.4,8.7c-6,6-13.5,10.8-22.1,8.8
	c-9.5-4.5-9.9-16.2-9-26.3c0.8-3.8,0.8-8,2.5-11.5l6.5-1.9c14.2-5,30.9-5.9,40.3-21c3.1-5.7,5.7-14.2,1.8-20.5
	C210.6,132.9,208,130.7,205.2,129.7z M180.8,168.9c-19.4,6.6-14.5,3.9-14.5,3.9s14.6-46.5,29.7-41
	C211.2,137.3,200.1,162.2,180.8,168.9z M280,149.8l5.5-21.2l-61.9,0.4l-5.8,21.1h18.6l-19.8,77.2h22.7l20.5-77L280,149.8z"/>
<g id="ASIA">
	<path fill="#FFFFFF" d="M132.6,236h10.5l7.8,98.1h-9l-1.8-28.6h-32.9l-13.4,28.6h-9L132.6,236z M139.9,298.1l-3.3-55.2h-0.3
		l-25.7,55.2H139.9z"/>
	<path fill="#FFFFFF" d="M215.6,261.2c2.5-12.1-1.4-19.4-12.9-19.4c-11.4,0-19.4,7.8-21.3,17.6c-6.1,29.3,42.8,13.2,35.8,47.7
		c-3.8,19-17.2,28.7-34.4,28.7c-17.6,0-25.3-9.9-21.3-29.1l0.5-2.9h8.4l-0.8,3.7c-2.5,12.5,2.1,20.9,14.5,20.9
		c11.9,0,21.5-6.2,24.4-19.9c5.9-29.1-43.1-12.5-35.8-48.1c3.2-15.4,14.9-26,31.2-26c17.5,0,23.7,9.3,20.1,26.8H215.6z"/>
	<path fill="#FFFFFF" d="M244.6,236h8.4l-20,98.1h-8.4L244.6,236z"/>
	<path fill="#FFFFFF" d="M289.9,236h10.5l7.8,98.1h-8.9l-1.8-28.6h-32.9L251,334.2h-9L289.9,236z M297.1,298.1l-3.3-55.2h-0.3
		l-25.7,55.2H297.1z"/>
</g>
<path fill="#A5D6F3" d="M278.2,101.4c0,0-2.6-3.9-31.9-10.6c0,0,10.2-5.9,8.6-21c0,0,14.3,1.7,13.1-5.9c0,0-5.9-15.1-19.5-15.8
	c0,0-11.6-21.2-21.6-19.3c0,0-3.3,2.5,14.3,24.2c0,0-3.6,2.5-5.7,7.7c0,0-36.4-9.9-65.7-3.5c0,0-7.6-7.9-13.1,1.7
	c0,0-3.1,7.4,5,10.9c0,0-1.7,3.5-2.8,11.8c0,0-5.5,1.2-10.7,7.7c0,0-7.9-2-10.7-1.2c0,0-8.1,5.4-16.2,19.8c0,0,0.2,3.9,2.9,3.7
	c0,0,1.2,2.7,15.2-12.6c0,0,6.7,0.5,10.2-1.2c0,0,59.9-12.1,93.7,5.4c0,0,21.2,0.7,28.8,5.2C272,108.3,281.3,110.8,278.2,101.4z
	 M254.1,56.2c1.2,0,2.1,1,2.1,2.2c0,1.2-1,2.2-2.1,2.2c-1.2,0-2.1-1-2.1-2.2C252,57.2,253,56.2,254.1,56.2z"/>
</svg>
